<svg height="464pt" viewBox="0 0 464 464" width="464pt" xmlns="http://www.w3.org/2000/svg"><path d="m267.792969 349.609375-22.730469 18.191406 14.441406 10.824219zm0 0"/><path d="m334.320312 361.289062-49.375-13.464843-16.449218 57.550781-36.496094-27.375-36.496094 27.375-16.449218-57.550781-49.375 13.464843c-10.40625 2.839844-17.679688 12.359376-17.679688 23.160157v79.550781h40v-72h16v72h128v-72h16v72h40v-79.550781c0-10.800781-7.273438-20.320313-17.679688-23.160157zm0 0"/><path d="m232 312c26.472656 0 48-21.527344 48-48v-32c0-26.472656-21.527344-48-48-48s-48 21.527344-48 48v32c0 26.472656 21.527344 48 48 48zm0 0"/><path d="m264 332.152344v-12.808594c-9.425781 5.472656-20.335938 8.65625-32 8.65625s-22.574219-3.183594-32-8.65625v12.808594l32 25.601562zm0 0"/><path d="m204.496094 378.625 14.441406-10.824219-22.730469-18.191406zm0 0"/><path d="m95.382812 88h-30.765624c2.144531 15.40625 9.878906 28.175781 15.367187 35.527344 5.488281-7.375 13.238281-20.183594 15.398437-35.527344zm0 0"/><path d="m61.152344 124.136719c-5.566406-9.28125-11.089844-21.730469-12.664063-36.136719h-15.769531c2.753906 16.28125 13.671875 29.808594 28.433594 36.136719zm0 0"/><path d="m61.152344 35.871094c-14.761719 6.328125-25.679688 19.855468-28.425782 36.136718h15.769532c1.566406-14.40625 7.078125-26.863281 12.65625-36.136718zm0 0"/><path d="m80.015625 36.472656c-5.488281 7.382813-13.238281 20.183594-15.398437 35.527344h30.765624c-2.136718-15.40625-9.878906-28.175781-15.367187-35.527344zm0 0"/><path d="m127.28125 72c-2.753906-16.28125-13.671875-29.808594-28.425781-36.136719 5.570312 9.28125 11.089843 21.730469 12.664062 36.136719zm0 0"/><path d="m127.28125 88h-15.769531c-1.574219 14.398438-7.085938 26.855469-12.664063 36.136719 14.761719-6.328125 25.679688-19.855469 28.433594-36.136719zm0 0"/><path d="m80 160h80v-80c0-44.113281-35.886719-80-80-80s-80 35.886719-80 80 35.886719 80 80 80zm0-144c35.289062 0 64 28.710938 64 64s-28.710938 64-64 64-64-28.710938-64-64 28.710938-64 64-64zm0 0"/><path d="m408.726562 111.695312 7.632813 3.832032 3.167969-3.167969-3.832032-7.632813 2.335938-3.789062c2.234375-3.640625 3.863281-7.570312 4.839844-11.671875l1.03125-4.328125 8.097656-2.699219v-4.46875l-8.097656-2.707031-1.03125-4.328125c-.976563-4.101563-2.605469-8.03125-4.839844-11.671875l-2.335938-3.789062 3.832032-7.632813-3.167969-3.167969-7.632813 3.832032-3.789062-2.335938c-3.640625-2.234375-7.570312-3.863281-11.671875-4.839844l-4.328125-1.03125-2.707031-8.097656h-4.46875l-2.707031 8.097656-4.328126 1.03125c-4.101562.976563-8.03125 2.605469-11.671874 4.839844l-3.789063 2.335938-7.632813-3.832032-3.152343 3.167969 3.832031 7.632813-2.335938 3.789062c-2.234374 3.640625-3.863281 7.570312-4.839843 11.671875l-1.03125 4.328125-8.105469 2.707031v4.46875l8.097656 2.707031 1.03125 4.328126c.976563 4.101562 2.605469 8.03125 4.839844 11.671874l2.335938 3.789063-3.832032 7.632813 3.167969 3.167968 7.632813-3.832031 3.789062 2.335937c3.640625 2.234376 7.570312 3.863282 11.671875 4.839844l4.328125 1.03125 2.707031 8.097656h4.46875l2.707031-8.097656 4.328126-1.03125c4.101562-.976562 8.03125-2.605468 11.671874-4.839844zm-24.726562-7.695312c-13.230469 0-24-10.769531-24-24s10.769531-24 24-24 24 10.769531 24 24-10.769531 24-24 24zm0 0"/><path d="m392 80c0 4.417969-3.582031 8-8 8s-8-3.582031-8-8 3.582031-8 8-8 8 3.582031 8 8zm0 0"/><path d="m464 80c0-44.113281-35.886719-80-80-80s-80 35.886719-80 80v80h80c44.113281 0 80-35.886719 80-80zm-97.367188 53.199219c-2.738281-.886719-5.394531-1.992188-7.960937-3.304688l-10.183594 5.105469-19.480469-19.480469 5.105469-10.183593c-1.3125-2.566407-2.417969-5.222657-3.304687-7.960938l-10.808594-3.605469v-27.53125l10.808594-3.597656c.886718-2.738281 1.992187-5.394531 3.304687-7.960937l-5.105469-10.183594 19.480469-19.480469 10.183594 5.105469c2.566406-1.3125 5.222656-2.417969 7.960937-3.304688l3.597657-10.808594h27.53125l3.597656 10.808594c2.738281.886719 5.394531 1.992188 7.960937 3.304688l10.183594-5.105469 19.480469 19.480469-5.105469 10.183594c1.3125 2.566406 2.417969 5.222656 3.304688 7.960937l10.816406 3.597656v27.53125l-10.808594 3.597657c-.886718 2.738281-1.992187 5.394531-3.304687 7.960937l5.105469 10.183594-19.480469 19.480469-10.183594-5.105469c-2.566406 1.3125-5.222656 2.417969-7.960937 3.304687l-3.597657 10.808594h-27.53125zm0 0"/><path d="m456 208h-96c-4.414062 0-8 3.585938-8 8v96c0 4.414062 3.585938 8 8 8h96c4.414062 0 8-3.585938 8-8v-96c0-4.40625-3.585938-8-8-8zm-15.3125 58.625-32.6875 32.6875-32.6875-32.6875c-4.648438-4.648438-7.3125-11.074219-7.3125-17.65625 0-13.769531 11.199219-24.96875 24.96875-24.96875 5.414062 0 10.726562 1.808594 15.03125 5.03125 4.304688-3.222656 9.617188-5.03125 15.03125-5.03125 13.769531 0 24.96875 11.199219 24.96875 24.96875 0 6.582031-2.664062 13.007812-7.3125 17.65625zm0 0"/><path d="m423.03125 240c-2.359375 0-4.671875.953125-6.34375 2.625l-8.6875 8.6875-8.6875-8.6875c-1.671875-1.671875-3.984375-2.625-6.34375-2.625-4.945312 0-8.96875 4.023438-8.96875 8.96875 0 2.359375.953125 4.671875 2.625 6.34375l21.375 21.375 21.375-21.375c1.671875-1.671875 2.625-3.984375 2.625-6.34375 0-4.945312-4.023438-8.96875-8.96875-8.96875zm0 0"/><path d="m112 216c0-4.414062-3.585938-8-8-8h-96c-4.414062 0-8 3.585938-8 8v96c0 4.414062 3.585938 8 8 8h96c4.414062 0 8-3.585938 8-8zm-48.566406 88h-16v-16h16zm10-25.910156c-9.1875-7.84375-25.671875-7.84375-34.859375 0l-10.390625-12.167969c7.488281-6.394531 17.367187-9.914063 27.824218-9.914063 10.457032 0 20.335938 3.519532 27.824219 9.914063zm22.261718-22.210938c-10.589843-10.230468-24.695312-15.871094-39.695312-15.871094s-29.105469 5.640626-39.695312 15.871094l-11.128907-11.503906c13.601563-13.144531 31.648438-20.375 50.824219-20.375s37.214844 7.230469 50.824219 20.375zm0 0"/></svg>